<mxfile host="app.diagrams.net" modified="2021-09-02T02:44:40.718Z" agent="5.0 (X11)" etag="l7wLhl4C__YVwST0Afnr" version="14.9.6" type="github">
  <diagram id="Qn4WWXE6FBmZt172_Dt2" name="Page-1">
    <mxGraphModel dx="1085" dy="758" grid="1" gridSize="10" guides="1" tooltips="1" connect="1" arrows="1" fold="1" page="1" pageScale="1" pageWidth="827" pageHeight="1169" math="0" shadow="0">
      <root>
        <mxCell id="0" />
        <mxCell id="1" parent="0" />
        <mxCell id="IB9CkpndWJkkWl0VXXWw-1" value="" style="line;strokeWidth=2;direction=south;html=1;perimeter=backbonePerimeter;points=[];outlineConnect=0;" vertex="1" parent="1">
          <mxGeometry x="250" y="360" width="10" height="160" as="geometry" />
        </mxCell>
        <mxCell id="IB9CkpndWJkkWl0VXXWw-2" value="" style="line;strokeWidth=2;direction=south;html=1;perimeter=backbonePerimeter;points=[];outlineConnect=0;" vertex="1" parent="1">
          <mxGeometry x="250" y="520" width="10" height="160" as="geometry" />
        </mxCell>
        <mxCell id="IB9CkpndWJkkWl0VXXWw-4" value="" style="ellipse;whiteSpace=wrap;html=1;strokeWidth=2;" vertex="1" parent="1">
          <mxGeometry x="230" y="565" width="50" height="20" as="geometry" />
        </mxCell>
        <mxCell id="IB9CkpndWJkkWl0VXXWw-5" value="" style="ellipse;whiteSpace=wrap;html=1;strokeWidth=2;" vertex="1" parent="1">
          <mxGeometry x="230" y="470" width="50" height="20" as="geometry" />
        </mxCell>
        <mxCell id="IB9CkpndWJkkWl0VXXWw-7" value="" style="line;strokeWidth=2;html=1;" vertex="1" parent="1">
          <mxGeometry x="270" y="360" width="160" height="10" as="geometry" />
        </mxCell>
        <mxCell id="IB9CkpndWJkkWl0VXXWw-8" value="" style="line;strokeWidth=2;html=1;" vertex="1" parent="1">
          <mxGeometry x="450" y="360" width="160" height="10" as="geometry" />
        </mxCell>
        <mxCell id="IB9CkpndWJkkWl0VXXWw-9" value="" style="line;strokeWidth=2;direction=south;html=1;perimeter=backbonePerimeter;points=[];outlineConnect=0;" vertex="1" parent="1">
          <mxGeometry x="600" y="360" width="10" height="160" as="geometry" />
        </mxCell>
        <mxCell id="IB9CkpndWJkkWl0VXXWw-10" value="" style="line;strokeWidth=2;direction=south;html=1;perimeter=backbonePerimeter;points=[];outlineConnect=0;" vertex="1" parent="1">
          <mxGeometry x="600" y="520" width="10" height="160" as="geometry" />
        </mxCell>
        <mxCell id="IB9CkpndWJkkWl0VXXWw-12" value="" style="ellipse;whiteSpace=wrap;html=1;strokeWidth=2;" vertex="1" parent="1">
          <mxGeometry x="580" y="355" width="50" height="20" as="geometry" />
        </mxCell>
        <mxCell id="IB9CkpndWJkkWl0VXXWw-13" value="" style="ellipse;whiteSpace=wrap;html=1;strokeWidth=2;" vertex="1" parent="1">
          <mxGeometry x="230" y="355" width="50" height="20" as="geometry" />
        </mxCell>
        <mxCell id="IB9CkpndWJkkWl0VXXWw-14" value="" style="line;strokeWidth=2;html=1;" vertex="1" parent="1">
          <mxGeometry x="254" y="680" width="160" height="10" as="geometry" />
        </mxCell>
        <mxCell id="IB9CkpndWJkkWl0VXXWw-15" value="" style="line;strokeWidth=2;html=1;" vertex="1" parent="1">
          <mxGeometry x="440" y="680" width="160" height="10" as="geometry" />
        </mxCell>
        <mxCell id="IB9CkpndWJkkWl0VXXWw-16" value="" style="ellipse;whiteSpace=wrap;html=1;strokeWidth=2;" vertex="1" parent="1">
          <mxGeometry x="420" y="355" width="50" height="20" as="geometry" />
        </mxCell>
        <mxCell id="IB9CkpndWJkkWl0VXXWw-23" value="" style="ellipse;whiteSpace=wrap;html=1;strokeWidth=2;" vertex="1" parent="1">
          <mxGeometry x="230" y="670" width="50" height="20" as="geometry" />
        </mxCell>
        <mxCell id="IB9CkpndWJkkWl0VXXWw-25" value="" style="ellipse;whiteSpace=wrap;html=1;strokeWidth=2;" vertex="1" parent="1">
          <mxGeometry x="410" y="675" width="50" height="20" as="geometry" />
        </mxCell>
        <mxCell id="IB9CkpndWJkkWl0VXXWw-26" value="" style="ellipse;whiteSpace=wrap;html=1;strokeWidth=2;" vertex="1" parent="1">
          <mxGeometry x="570" y="670" width="50" height="20" as="geometry" />
        </mxCell>
        <mxCell id="IB9CkpndWJkkWl0VXXWw-27" value="" style="ellipse;whiteSpace=wrap;html=1;strokeWidth=2;" vertex="1" parent="1">
          <mxGeometry x="580" y="520" width="50" height="20" as="geometry" />
        </mxCell>
        <mxCell id="IB9CkpndWJkkWl0VXXWw-28" value="&lt;font style=&quot;font-size: 20px&quot;&gt;A&lt;/font&gt;" style="text;html=1;align=center;verticalAlign=middle;resizable=0;points=[];autosize=1;strokeColor=none;" vertex="1" parent="1">
          <mxGeometry x="580" y="710" width="30" height="20" as="geometry" />
        </mxCell>
        <mxCell id="IB9CkpndWJkkWl0VXXWw-31" value="&lt;font style=&quot;font-size: 20px&quot;&gt;B&lt;/font&gt;" style="text;html=1;align=center;verticalAlign=middle;resizable=0;points=[];autosize=1;strokeColor=none;" vertex="1" parent="1">
          <mxGeometry x="420" y="710" width="30" height="20" as="geometry" />
        </mxCell>
        <mxCell id="IB9CkpndWJkkWl0VXXWw-32" value="&lt;font style=&quot;font-size: 20px&quot;&gt;C&lt;/font&gt;" style="text;html=1;align=center;verticalAlign=middle;resizable=0;points=[];autosize=1;strokeColor=none;" vertex="1" parent="1">
          <mxGeometry x="225" y="700" width="30" height="20" as="geometry" />
        </mxCell>
        <mxCell id="IB9CkpndWJkkWl0VXXWw-34" value="&lt;font style=&quot;font-size: 20px&quot;&gt;D&lt;/font&gt;" style="text;html=1;align=center;verticalAlign=middle;resizable=0;points=[];autosize=1;strokeColor=none;" vertex="1" parent="1">
          <mxGeometry x="185" y="560" width="30" height="20" as="geometry" />
        </mxCell>
        <mxCell id="IB9CkpndWJkkWl0VXXWw-35" value="&lt;font style=&quot;font-size: 20px&quot;&gt;E&lt;/font&gt;" style="text;html=1;align=center;verticalAlign=middle;resizable=0;points=[];autosize=1;strokeColor=none;" vertex="1" parent="1">
          <mxGeometry x="185" y="470" width="30" height="20" as="geometry" />
        </mxCell>
        <mxCell id="IB9CkpndWJkkWl0VXXWw-36" value="&lt;font style=&quot;font-size: 20px&quot;&gt;F&lt;/font&gt;" style="text;html=1;align=center;verticalAlign=middle;resizable=0;points=[];autosize=1;strokeColor=none;" vertex="1" parent="1">
          <mxGeometry x="185" y="355" width="30" height="20" as="geometry" />
        </mxCell>
        <mxCell id="IB9CkpndWJkkWl0VXXWw-37" value="&lt;font style=&quot;font-size: 20px&quot;&gt;H&lt;/font&gt;" style="text;html=1;align=center;verticalAlign=middle;resizable=0;points=[];autosize=1;strokeColor=none;" vertex="1" parent="1">
          <mxGeometry x="430" y="310" width="30" height="20" as="geometry" />
        </mxCell>
        <mxCell id="IB9CkpndWJkkWl0VXXWw-38" value="&lt;font style=&quot;font-size: 20px&quot;&gt;J&lt;/font&gt;" style="text;html=1;align=center;verticalAlign=middle;resizable=0;points=[];autosize=1;strokeColor=none;" vertex="1" parent="1">
          <mxGeometry x="590" y="310" width="30" height="20" as="geometry" />
        </mxCell>
        <mxCell id="IB9CkpndWJkkWl0VXXWw-39" value="&lt;font style=&quot;font-size: 20px&quot;&gt;K&lt;/font&gt;" style="text;html=1;align=center;verticalAlign=middle;resizable=0;points=[];autosize=1;strokeColor=none;" vertex="1" parent="1">
          <mxGeometry x="635" y="530" width="30" height="20" as="geometry" />
        </mxCell>
      </root>
    </mxGraphModel>
  </diagram>
</mxfile>
